<svg xmlns="http://www.w3.org/2000/svg" viewBox="0 0 1366 311.53"><defs><style>.a{fill:#e40018;}.b{fill:#a5c615;}.c{fill:#0099ed;}.d{fill:#029981;}.e{fill:#efaa02;}.f{fill:#df3491;}</style></defs><path d="M610.61,265.14H550.78c0-34.3-.2-67.29.06-100.27.07-13.53-1.11-25.81-18.68-26s-19.34,11.75-19.27,25.41c.19,33.05.06,66.11.06,100.66H452.79v-63.3c0-11.1.06-22.14,0-33.18-.07-14.18.85-29.53-19.6-29.53s-19.66,15.16-19.66,29.46c.06,31.62.06,63.3.06,96.49H355.78c0-44.81-4.18-89.89,1.17-133.85,5.49-44.29,65.59-65.85,106.16-42.27,6.53,3.86,12.54,8.49,19.66,13.33,22.21-18.88,47.17-28.22,76.5-19.8,27.63,8,48.67,25,50.62,53.9C612.77,178.58,610.61,221.37,610.61,265.14Z" transform="translate(0 0.95)"/><path d="M966.44,264.75C895.17,287.42,824,248.55,827.89,167c2.22-46.91.32-94,.45-141,0-6.73.66-13.46,1-21.36h58.73c0,22.93,0,44.81.06,66.69,0,34.63-.59,69.18.33,103.74.52,19.79,10.71,34.49,30.44,39.78,16.53,4.45,31.94,1.11,42.33-14,10.78-15.67,13-33.51.66-48.14-7.13-8.43-22.94-15.39-31-16.66-6.08-1-16.21.26-27.38.85,0-15.09-1.37-29.53.72-43.51.72-4.76,9.54-10.64,15.55-12,46.71-10.45,95.44,20,107.26,66.11C1039.93,197.46,1013.48,249.85,966.44,264.75Z" transform="translate(0 0.95)"/><path d="M325.34,265.47H264.13c0-29.79.13-58.6,0-87.41-.13-17.11-5.75-31.49-22.54-38.67-16.53-7-32.79-6.47-46.25,6.6s-14.7,29.59-8.43,46.12,19.54,24.56,37.37,24.17c6.86-.13,13.78-.92,24.5-1.7,0,14.56,1.63,29-.85,42.66-.92,5.16-10.85,11.62-17.31,12.41-37.44,4.7-70.75-4.12-92.18-37.83s-22.54-69.5-2.68-104.19c20.12-35.15,52.92-50,92.44-48,62.58,3.07,96.94,40.3,97.14,102.88C325.4,209.35,325.34,236.2,325.34,265.47Z" transform="translate(0 0.95)"/><path d="M1145.83,79.16c-52.79.52-96.95,44.35-96.95,96.35,0,53.5,44.36,96.23,99,95.44,53.37-.78,96.61-44.16,96.16-96.55C1243.62,122.93,1198,78.7,1145.83,79.16Zm-.27,137.12c-22.66-.4-39.71-18.75-39.13-42.07s18.3-39.72,42-38.74c22.6,1,38.48,17.83,38.21,40.57C1186.33,199.16,1168.43,216.67,1145.56,216.28Z" transform="translate(0 0.95)"/><path d="M702.79,85.49V265H642.88c0-47.43-.45-93.48.14-139.54.65-47.95-9.48-41.22,43.05-41.74C691.36,83.67,696.71,84.84,702.79,85.49Z" transform="translate(0 0.95)"/><path d="M794.5,83.67v181.4H735.78V197c0-32.47.32-64.87-.13-97.34-.2-11,2.81-16.72,15-16.14C764.91,84.25,779.22,83.67,794.5,83.67Z" transform="translate(0 0.95)"/><path d="M707.49,33.89c-.46,19.79-14.76,33.18-34.88,32.79-19.66-.46-34.3-15.42-33.71-34.49S655-1.32,674.24-.93C693.9-.47,708,14.22,707.49,33.89Z" transform="translate(0 0.95)"/><path d="M799.73,31.86c.79,19.21-13.46,34.23-32.92,34.82-20.25.52-34.49-12.61-35.15-32.4C731.07,14.75,745.18-.41,764.33-.93S799,12.79,799.73,31.86Z" transform="translate(0 0.95)"/><path class="a" d="M97.81,82.23C91,93.66,85.07,103.59,78,115.54c-19.53-7.83-38.87-15.67-61.86-25C26.34,73,34.9,58.52,44.63,41.86,63.64,56.29,80.37,69,97.81,82.23Z" transform="translate(0 0.95)"/><path class="b" d="M66.31,155.66c0,13.3-.12,24.87-.18,38.79-20.8,3.17-41.44,6.24-66,9.93C.08,184,.08,167.2,0,147.9,23.71,150.68,44.58,153.16,66.31,155.66Z" transform="translate(0 0.95)"/><path class="c" d="M77.62,233.31C85,244.39,91.35,254.05,99,265.65c-15.53,14.2-31,28.23-49.3,44.94C38.35,293.73,29,279.73,18.19,263.74,39.44,252.86,58.17,243.31,77.62,233.31Z" transform="translate(0 0.95)"/><path class="d" d="M1289.71,112.39c-6.59-11.54-12.3-21.61-19.19-33.7,16.45-13.13,32.81-26.08,52.21-41.52C1333,54.76,1341.36,69.36,1351.05,86,1329.12,95.46,1309.79,103.73,1289.71,112.39Z" transform="translate(0 0.95)"/><path class="e" d="M1299.4,194.55c.17-13.3.35-24.87.55-38.78,20.83-3,41.5-5.85,66-9.31-.1,20.35,0,37.8,0,56.8C1342.32,200.26,1321.1,197.26,1299.4,194.55Z" transform="translate(0 0.95)"/><path class="f" d="M1271.54,261.48c7.43-11,13.92-20.6,21.71-32.14,19.06,8.94,37.92,17.86,60.35,28.42-11.24,17-20.6,31-31.26,47C1304.18,289.31,1288.2,275.64,1271.54,261.48Z" transform="translate(0 0.95)"/></svg>